<svg id="camera_setting" enable-background="new 0 0 128 128" viewBox="0 0 128 128" xmlns="http://www.w3.org/2000/svg"><rect width="100%" height="100%" fill="#FFFFFF"/><path id="camera_setting_1_" d="m64 17.5c-25.64 0-46.5 20.86-46.5 46.5 0 25.641 20.86 46.5 46.5 46.5 25.641 0 46.5-20.859 46.5-46.5 0-25.64-20.859-46.5-46.5-46.5zm43 39.903-32.223-7.354c-.147-.069-.305-.115-.47-.107l-11.766-2.685 24.909-19.865c10.288 6.613 17.628 17.428 19.55 30.011zm-33.314 18.746-13.143 2.999-10.543-8.407v-13.482l10.542-8.407 13.144 3 5.85 12.148zm11.947-49.864-25.874 20.633c-.007.004-.013.011-.021.016l-9.738 7.767v-31.876c4.396-1.499 9.103-2.325 14-2.325 7.872 0 15.256 2.112 21.633 5.785zm-37.633-2.723v45.584l-24.927-19.878c4.234-11.726 13.373-21.118 24.927-25.706zm-25.601 27.727 25.805 20.58c.113.156.259.283.442.353l9.401 7.497-31.068 7.091c-4.103-6.637-6.479-14.451-6.479-22.81 0-4.421.667-8.688 1.899-12.711zm5.746 37.305 44.431-10.141-13.829 28.719c-12.678-1.534-23.691-8.535-30.602-18.578zm32.724 18.781 19.777-41.069 13.824 28.701c-7.855 7.72-18.614 12.493-30.47 12.493-1.054 0-2.096-.051-3.131-.125zm35.084-13.897-14.344-29.786c-.021-.072-.06-.134-.097-.2l-5.332-11.072 31.089 7.095c.151 1.475.23 2.97.23 4.484.001 11.365-4.385 21.722-11.546 29.479z" fill="rgb(0,0,0)" style="fill: rgb(0, 0, 0);"></path></svg>