<?xml version="1.0" standalone="no"?>
<!DOCTYPE svg PUBLIC "-//W3C//DTD SVG 20010904//EN"
 "http://www.w3.org/TR/2001/REC-SVG-20010904/DTD/svg10.dtd">
<svg version="1.0" xmlns="http://www.w3.org/2000/svg"
 width="512.000000pt" height="512.000000pt" viewBox="0 0 512.000000 512.000000"
 preserveAspectRatio="xMidYMid meet">
<metadata>
Created by potrace 1.16, written by Peter Selinger 2001-2019
</metadata>
<g transform="translate(0.000000,512.000000) scale(0.100000,-0.100000)"
fill="#000000" stroke="none">
<path d="M1198 4073 c10 -27 274 -731 587 -1565 l570 -1518 192 0 191 0 10 28
c6 15 274 711 597 1547 323 836 590 1528 592 1538 5 16 -8 17 -217 15 l-222
-3 -155 -425 c-294 -810 -591 -1636 -689 -1917 -54 -156 -101 -283 -104 -283
-4 0 -59 152 -123 338 -121 349 -242 688 -608 1699 l-214 593 -212 0 -213 0
18 -47z"/>
</g>
</svg>
